<?xml version="1.0" encoding="UTF-8"?>
<svg version="1.1" xmlns="http://www.w3.org/2000/svg" width="160" height="160">
<path d="M0 0 C12.64343638 6.25609482 19.38237807 20.30564442 23.7109375 33.078125 C28.92043509 50.53774318 28.32074115 71.04403716 22.3203125 88.1796875 C21.95808594 89.25089844 21.59585938 90.32210937 21.22265625 91.42578125 C17.25444222 101.98526605 11.10507063 111.28005392 1.3203125 117.1796875 C0.7221875 117.55222656 0.1240625 117.92476563 -0.4921875 118.30859375 C-6.0268856 120.5125896 -13.34791309 119.9948507 -19.05859375 118.59765625 C-30.86107545 113.37595223 -37.18574417 101.61929946 -41.6796875 90.1796875 C-43.38776782 85.26050938 -44.61824002 80.27831674 -45.6796875 75.1796875 C-45.83050781 74.46941406 -45.98132813 73.75914063 -46.13671875 73.02734375 C-46.45924112 71.06210745 -46.59671984 69.17091123 -46.6796875 67.1796875 C-46.73125 66.0453125 -46.7828125 64.9109375 -46.8359375 63.7421875 C-47.42586025 44.08301189 -43.35297515 21.58888695 -29.41015625 6.75 C-20.84844334 -1.01931962 -11.33495821 -3.46988517 0 0 Z " fill="#FDFDFD" transform="translate(131.6796875,18.8203125)"/>
<path d="M0 0 C10.09299882 4.59132495 16.73508811 14.94931633 20.97265625 24.77734375 C29.37937204 47.28564732 29.78708532 73.7022723 19.75610352 95.75024414 C15.26504511 105.02325782 9.61900163 113.80543572 0.109375 118.52734375 C-6.952576 120.73025085 -14.80621527 120.69726413 -21.4453125 117.28125 C-35.56209083 107.88746035 -41.31645119 92.93388081 -45.05200195 77.02636719 C-48.75735868 55.21894368 -45.77915192 30.97135595 -33.5078125 12.34375 C-24.81007177 1.03191556 -14.25198863 -3.72949235 0 0 Z " fill="#FCFCFC" transform="translate(48.5078125,18.65625)"/>
<path d="M0 0 C10.09299882 4.59132495 16.73508811 14.94931633 20.97265625 24.77734375 C29.37937204 47.28564732 29.78708532 73.7022723 19.75610352 95.75024414 C15.26504511 105.02325782 9.61900163 113.80543572 0.109375 118.52734375 C-6.952576 120.73025085 -14.80621527 120.69726413 -21.4453125 117.28125 C-35.56209083 107.88746035 -41.31645119 92.93388081 -45.05200195 77.02636719 C-48.75735868 55.21894368 -45.77915192 30.97135595 -33.5078125 12.34375 C-24.81007177 1.03191556 -14.25198863 -3.72949235 0 0 Z M-14.5078125 4.34375 C-14.5078125 5.00375 -14.5078125 5.66375 -14.5078125 6.34375 C-16.4878125 6.67375 -18.4678125 7.00375 -20.5078125 7.34375 C-20.8378125 8.33375 -21.1678125 9.32375 -21.5078125 10.34375 C-22.83188919 11.02861725 -24.16690491 11.69245203 -25.5078125 12.34375 C-28.31095316 14.81710941 -29.89626384 17.0132161 -31.5078125 20.34375 C-31.97832031 20.74335937 -32.44882812 21.14296875 -32.93359375 21.5546875 C-35.16239094 24.08766297 -35.71674861 26.67838707 -36.6328125 29.90625 C-38.45269439 36.23351378 -38.45269439 36.23351378 -39.5078125 38.34375 C-39.57731791 39.88398996 -39.59233607 41.42709988 -39.5703125 42.96875 C-39.56128906 43.78601562 -39.55226563 44.60328125 -39.54296875 45.4453125 C-39.53136719 46.07179687 -39.51976562 46.69828125 -39.5078125 47.34375 C-38.4353125 46.68375 -37.3628125 46.02375 -36.2578125 45.34375 C-30.16997946 42.32142154 -23.70891292 42.28293702 -17.171875 43.93359375 C-12.38140192 45.92503563 -9.24332353 49.17644352 -6.578125 53.58203125 C-4.19602032 59.72855683 -4.43923832 66.54437513 -6.2109375 72.84375 C-8.75048759 78.52545528 -12.68447068 82.02619048 -18.3203125 84.65625 C-24.06300011 85.8948689 -29.80336796 85.81586472 -35.5078125 84.34375 C-35.16623762 92.02918477 -33.2992757 97.01560386 -27.5078125 102.34375 C-26.239375 103.6740625 -26.239375 103.6740625 -24.9453125 105.03125 C-22.82597794 107.57317014 -22.82597794 107.57317014 -20.5078125 107.34375 C-20.415 108.271875 -20.415 108.271875 -20.3203125 109.21875 C-19.69921097 111.56113556 -19.69921097 111.56113556 -17.28515625 112.453125 C-10.06572649 114.7682164 -3.23696225 113.79187287 3.51953125 110.609375 C8.44138257 107.45159316 10.11994415 104.37722717 11.6796875 98.78125 C12.00324219 97.64558594 12.32679687 96.50992188 12.66015625 95.33984375 C12.93472656 94.35113281 13.20929687 93.36242187 13.4921875 92.34375 C13.9871875 90.85875 13.9871875 90.85875 14.4921875 89.34375 C15.1521875 89.34375 15.8121875 89.34375 16.4921875 89.34375 C17.14112987 87.28222611 17.7862139 85.21948742 18.4296875 83.15625 C18.78933594 82.00769531 19.14898437 80.85914062 19.51953125 79.67578125 C25.09780051 60.56628858 22.23594168 39.21281064 12.91796875 21.9140625 C12.44746094 21.06585938 11.97695313 20.21765625 11.4921875 19.34375 C10.8321875 19.34375 10.1721875 19.34375 9.4921875 19.34375 C9.4921875 18.02375 9.4921875 16.70375 9.4921875 15.34375 C7.23791478 13.82362963 7.23791478 13.82362963 4.4921875 12.34375 C2.78632175 10.71722684 1.1144329 9.05368434 -0.5078125 7.34375 C-3.64050955 4.21105295 -6.48109673 4.28880603 -10.7578125 4.28125 C-11.9953125 4.301875 -13.2328125 4.3225 -14.5078125 4.34375 Z " fill="#8B8B8A" transform="translate(48.5078125,18.65625)"/>
<path d="M0 0 C12.64343638 6.25609482 19.38237807 20.30564442 23.7109375 33.078125 C28.92043509 50.53774318 28.32074115 71.04403716 22.3203125 88.1796875 C21.95808594 89.25089844 21.59585938 90.32210937 21.22265625 91.42578125 C17.25444222 101.98526605 11.10507063 111.28005392 1.3203125 117.1796875 C0.7221875 117.55222656 0.1240625 117.92476563 -0.4921875 118.30859375 C-6.0268856 120.5125896 -13.34791309 119.9948507 -19.05859375 118.59765625 C-30.86107545 113.37595223 -37.18574417 101.61929946 -41.6796875 90.1796875 C-43.38776782 85.26050938 -44.61824002 80.27831674 -45.6796875 75.1796875 C-45.83050781 74.46941406 -45.98132813 73.75914063 -46.13671875 73.02734375 C-46.45924112 71.06210745 -46.59671984 69.17091123 -46.6796875 67.1796875 C-46.73125 66.0453125 -46.7828125 64.9109375 -46.8359375 63.7421875 C-47.42586025 44.08301189 -43.35297515 21.58888695 -29.41015625 6.75 C-20.84844334 -1.01931962 -11.33495821 -3.46988517 0 0 Z M-26.8046875 9.1171875 C-28.04605469 10.39916016 -28.04605469 10.39916016 -29.3125 11.70703125 C-30.09367187 12.52300781 -30.87484375 13.33898438 -31.6796875 14.1796875 C-32.40542969 14.87964844 -33.13117188 15.57960938 -33.87890625 16.30078125 C-38.40873281 21.02712957 -38.97993947 26.44571502 -39.42578125 32.6875 C-39.66890037 35.0738077 -40.14877891 37.1899918 -40.8046875 39.4921875 C-41.66139117 43.10258155 -41.53211569 44.69193552 -40.6796875 48.1796875 C-39.91398437 47.63828125 -39.91398437 47.63828125 -39.1328125 47.0859375 C-32.70066245 42.98030981 -27.22878608 42.0704322 -19.6796875 43.1796875 C-12.76542069 45.29331703 -9.32170376 49.13022873 -5.9296875 55.4296875 C-3.83776319 61.70546042 -3.85222861 66.7751946 -6.3671875 72.9296875 C-8.97757424 78.15046099 -12.00865813 81.65813319 -17.4296875 83.9921875 C-23.09829794 85.81803206 -27.98294368 86.48091354 -33.47265625 83.83203125 C-35.94075863 82.35952447 -38.3273386 80.8297694 -40.6796875 79.1796875 C-40.06041084 88.62365656 -37.72405341 99.40625874 -30.6796875 106.1796875 C-30.0609375 107.0253125 -29.4421875 107.8709375 -28.8046875 108.7421875 C-26.5319831 111.34911313 -24.94359515 112.18238238 -21.6796875 113.1796875 C-21.6796875 113.8396875 -21.6796875 114.4996875 -21.6796875 115.1796875 C-17.88916026 116.92862562 -14.84659665 117.47624269 -10.6796875 117.4921875 C-9.6690625 117.50894531 -8.6584375 117.52570313 -7.6171875 117.54296875 C-4.25767562 117.1274972 -2.462835 116.0552869 0.3203125 114.1796875 C1.4340625 113.6846875 2.5478125 113.1896875 3.6953125 112.6796875 C11.08408619 108.47822795 15.69502863 98.00662078 18.3203125 90.1796875 C18.3203125 89.1896875 18.3203125 88.1996875 18.3203125 87.1796875 C18.9803125 87.1796875 19.6403125 87.1796875 20.3203125 87.1796875 C27.69377797 69.07519638 26.79144439 45.24272566 19.50830078 27.1640625 C16.20280527 19.63827327 12.3226694 11.89621788 6.3203125 6.1796875 C5.8253125 5.1896875 5.8253125 5.1896875 5.3203125 4.1796875 C-6.62145812 -1.1769092 -17.62184394 -0.45427169 -26.8046875 9.1171875 Z " fill="#898989" transform="translate(131.6796875,18.8203125)"/>
<path d="M0 0 C6.02454767 2.62847061 9.75654147 7.59902044 12.6484375 13.3828125 C13.28156978 21.29177643 13.77919852 28.91293789 8.6484375 35.3828125 C3.63085174 40.80131916 -1.30995143 43.32502512 -8.7265625 43.8203125 C-13.92868832 43.67143011 -17.52469566 41.85950851 -21.3515625 38.3828125 C-27.04650012 31.24647628 -28.22905222 24.38926944 -27.3515625 15.3828125 C-25.5369 8.96245769 -22.34720796 3.84100308 -16.5546875 0.27734375 C-11.47992739 -1.78315282 -5.23143621 -1.37303475 0 0 Z " fill="#5F2F05" transform="translate(31.3515625,61.6171875)"/>
<path d="M0 0 C0.70275941 1.3146678 1.3680717 2.64985599 2 4 C2.639375 4.474375 3.27875 4.94875 3.9375 5.4375 C10.57460852 10.46561252 13.65335392 21.28214178 16 29 C16.30035156 29.95390625 16.60070312 30.9078125 16.91015625 31.890625 C21.17028632 47.98004648 21.31684932 67.48987889 15 83 C14.34 83 13.68 83 13 83 C12.89171875 83.87785156 12.7834375 84.75570312 12.671875 85.66015625 C11.58946119 91.04075978 8.77822022 95.32196743 6 100 C5.42765625 101.03447266 5.42765625 101.03447266 4.84375 102.08984375 C1.90649325 106.88386637 -1.81628292 108.78774769 -6.890625 111.0546875 C-8.94267669 111.82397846 -8.94267669 111.82397846 -10 113 C-11.91352846 113.12619896 -13.83235023 113.17580701 -15.75 113.1875 C-16.79671875 113.20167969 -17.8434375 113.21585937 -18.921875 113.23046875 C-22.02080677 112.99844213 -24.20276014 112.31055867 -27 111 C-27 110.34 -27 109.68 -27 109 C-27.7425 108.773125 -28.485 108.54625 -29.25 108.3125 C-32.58278692 106.7218517 -33.85323775 104.977767 -36 102 C-36.66 101.278125 -37.32 100.55625 -38 99.8125 C-40.8246117 95.8403898 -42.3410655 91.55839966 -44 87 C-44.4125 85.9275 -44.825 84.855 -45.25 83.75 C-46.07431322 80.72751818 -46.14850836 78.11867558 -46 75 C-42.94127906 76.2972254 -40.36456436 77.64062109 -38 80 C-37.2885808 83.4263204 -37.51769764 86.55019843 -38 90 C-37.34 90 -36.68 90 -36 90 C-35.54625 91.051875 -35.0925 92.10375 -34.625 93.1875 C-34.34785156 93.82300781 -34.07070312 94.45851563 -33.78515625 95.11328125 C-33.13664556 96.67164275 -32.58578839 98.27024895 -32.0625 99.875 C-31.711875 100.57625 -31.36125 101.2775 -31 102 C-29.23167185 102.63143136 -29.23167185 102.63143136 -27 103 C-25.948125 103.680625 -24.89625 104.36125 -23.8125 105.0625 C-19.57578454 107.54828166 -15.80343301 107.69837147 -11 107 C-5.67981989 105.3152763 -2.79712266 103.00237253 1 99 C1.721875 98.71125 2.44375 98.4225 3.1875 98.125 C6.15990914 96.28005639 6.16871192 93.26973312 7 90 C7.48082031 89.2265625 7.96164063 88.453125 8.45703125 87.65625 C10.16550442 84.715081 10.87675939 82.12202578 11.625 78.8125 C12.92255125 73.15489749 12.92255125 73.15489749 14 71 C16.12259892 57.79271786 15.55504808 44.58218021 12.75390625 31.55078125 C12.00695933 28.03277737 11.47110319 24.56300373 11 21 C10.34 21 9.68 21 9 21 C8.566875 19.906875 8.13375 18.81375 7.6875 17.6875 C6.47394641 14.83106962 5.24533569 13.1477124 3 11 C2.72027344 10.21496094 2.44054687 9.42992187 2.15234375 8.62109375 C0.1335182 4.02912106 -3.50755234 1.96991554 -8 0 C-12.98021026 -0.98559862 -17.60454365 -1.14187556 -22.26171875 1.078125 C-24.3623359 2.58033452 -26.15523082 4.19358361 -28 6 C-28.71285156 6.63808594 -29.42570312 7.27617187 -30.16015625 7.93359375 C-34.47088865 11.94703426 -37.046826 15.34607527 -39 21 C-39.515625 21.99 -40.03125 22.98 -40.5625 24 C-43.12372955 29.83690733 -43.31225915 36.71323953 -44 43 C-44.99 43 -45.98 43 -47 43 C-46.85904936 41.3745692 -46.71207913 39.74965949 -46.5625 38.125 C-46.48128906 37.22007813 -46.40007812 36.31515625 -46.31640625 35.3828125 C-46 33 -46 33 -45 31 C-44.87120592 29.46019518 -44.77109468 27.9179189 -44.6875 26.375 C-43.94113452 18.41759571 -40.87309367 13.3510409 -35 8 C-34.29230469 7.26265625 -33.58460937 6.5253125 -32.85546875 5.765625 C-32.07816406 4.95609375 -31.30085938 4.1465625 -30.5 3.3125 C-29.7678125 2.54550781 -29.035625 1.77851563 -28.28125 0.98828125 C-20.88725729 -5.45614048 -8.33776233 -4.37283817 0 0 Z " fill="#DADADA" transform="translate(137,23)"/>
<path d="M0 0 C2.21484375 1.484375 2.21484375 1.484375 4 3 C4.763125 3.226875 5.52625 3.45375 6.3125 3.6875 C15.33693415 8.09478179 19.76165879 18.9797564 23 28 C23.75637144 30.95228851 24.31752675 33.8089262 24.7109375 36.828125 C24.95405605 39.17600763 24.95405605 39.17600763 26 42 C27.3573043 64.51479919 26.5803989 89.30314096 11.46875 107.58984375 C9.22032986 109.74856627 6.89155798 110.89259481 4 112 C3.25492188 112.34546875 2.50984375 112.6909375 1.7421875 113.046875 C-4.70275283 115.28699671 -13.22725984 115.26447961 -19.5 112.4375 C-22.87204401 110.41571772 -25.2761956 107.77073976 -27.67578125 104.68359375 C-28.96501097 102.96212373 -28.96501097 102.96212373 -30.5703125 101.50390625 C-32.86412932 99.09101151 -33.74715732 96.05039957 -35 93 C-35.66 92.01 -36.32 91.02 -37 90 C-37.4140625 87.08203125 -37.4140625 87.08203125 -37.625 83.8125 C-37.69976562 82.72582031 -37.77453125 81.63914062 -37.8515625 80.51953125 C-37.90054688 79.68808594 -37.94953125 78.85664062 -38 78 C-33.86561857 79.93524237 -33.86561857 79.93524237 -32 82 C-31.43623626 84.57110434 -31.31280654 86.93296905 -31.30078125 89.5625 C-30.938463 92.49868948 -29.84289826 93.74378682 -28 96 C-28 96.66 -28 97.32 -28 98 C-27.01 98.33 -26.02 98.66 -25 99 C-24.7834375 99.9590625 -24.7834375 99.9590625 -24.5625 100.9375 C-24.20413209 103.17920606 -24.20413209 103.17920606 -22.0625 104.1875 C-21.381875 104.455625 -20.70125 104.72375 -20 105 C-19.34 105.33 -18.68 105.66 -18 106 C-17.67 106.99 -17.34 107.98 -17 109 C-11.88290736 111.68894675 -6.64049855 111.57150426 -1 111 C2.40241824 109.6351132 2.40241824 109.6351132 5 108 C5.99 108 6.98 108 8 108 C8.495 106.515 8.495 106.515 9 105 C9.66 104.67 10.32 104.34 11 104 C11.74062544 101.89963255 12.394414 99.76820672 13 97.625 C14.05390598 93.91162815 14.85117062 91.22324407 17 88 C17.66 88 18.32 88 19 88 C19.13277344 87.11054687 19.26554687 86.22109375 19.40234375 85.3046875 C19.92184255 82.4321647 20.67004656 79.89289907 21.5625 77.125 C26.11760989 59.17382802 24.08513082 38.48583419 15.20703125 22.328125 C14 20 14 20 14 18 C13.34 18 12.68 18 12 18 C12 16.68 12 15.36 12 14 C11.278125 13.773125 10.55625 13.54625 9.8125 13.3125 C6.4484918 11.74262951 4.50703313 9.71030608 2 7 C-0.62451617 4.37548383 -2.4877828 4.4167132 -6.125 3.875 C-7.22070312 3.70742188 -8.31640625 3.53984375 -9.4453125 3.3671875 C-10.28835937 3.24601562 -11.13140625 3.12484375 -12 3 C-12 3.66 -12 4.32 -12 5 C-13.3303125 5.3403125 -13.3303125 5.3403125 -14.6875 5.6875 C-18.48045988 7.19037089 -20.28798093 8.99478968 -23 12 C-23.804375 12.7425 -23.804375 12.7425 -24.625 13.5 C-26.17964528 15.08874199 -26.17964528 15.08874199 -27.5625 17.6875 C-28.036875 18.450625 -28.51125 19.21375 -29 20 C-29.66 20 -30.32 20 -31 20 C-31.19335938 20.89203125 -31.38671875 21.7840625 -31.5859375 22.703125 C-31.84632812 23.87359375 -32.10671875 25.0440625 -32.375 26.25 C-32.63023438 27.41015625 -32.88546875 28.5703125 -33.1484375 29.765625 C-34 33 -34 33 -35.109375 35.10546875 C-36.57288526 38.2186375 -35.93230159 41.3003888 -35.6796875 44.66015625 C-36 47 -36 47 -38.0078125 48.80859375 C-38.99394531 49.39833984 -38.99394531 49.39833984 -40 50 C-40.20743489 45.12528017 -39.65900285 40.99821998 -38.5 36.265625 C-38.02242599 34.10161777 -37.76443211 32.01692555 -37.5625 29.8125 C-36.06738071 19.67891371 -27.68962253 10.4525963 -20 4 C-13.98419542 -0.42030858 -7.31242516 -1.1595417 0 0 Z " fill="#CECECE" transform="translate(46,20)"/>
<path d="M0 0 C3.28241941 -0.5744234 5.31513357 -0.46038244 8.109375 1.41796875 C12.95269807 5.56307554 15.78526983 8.33734585 16.3125 14.875 C16.15399843 19.62124143 14.93708034 23.01042425 11.55859375 26.48046875 C7.61235081 29.7491665 4.25134676 30.72095895 -0.8515625 30.43359375 C-5.14581046 29.56693643 -7.98564636 27.01435364 -11 24 C-11.08226668 27.04386724 -10.97608217 29.07175348 -10 32 C-7.49552484 33.21869929 -7.49552484 33.21869929 -5 34 C-6.485 34.495 -6.485 34.495 -8 35 C-12.93263663 31.96453131 -15.81677197 27.65021981 -17.59765625 22.15625 C-18.10958752 19.41269603 -18.1700601 16.79038415 -18.1875 14 C-18.20167969 12.96875 -18.21585937 11.9375 -18.23046875 10.875 C-17.99925966 7.99076451 -17.64606532 6.36245919 -16 4 C-15.01 3.67 -14.02 3.34 -13 3 C-12.67 4.65 -12.34 6.3 -12 8 C-9.03 8 -6.06 8 -3 8 C-1.53867783 5.07735566 -0.65900754 3.07536854 0 0 Z " fill="#2C1402" transform="translate(105,68)"/>
<path d="M0 0 C3.07877133 -0.4505519 5.21010698 -0.50042912 7.88671875 1.1953125 C11.66898289 4.35116392 14.53429578 7.07039556 15.3359375 12.11328125 C15.43970114 17.95517402 14.49808161 21.27286269 11 26 C7.37110107 29.21416763 3.90195546 29.5192447 -0.78515625 29.35546875 C-5.26738178 28.63609922 -8.0518403 26.13779164 -10.875 22.75 C-11.431875 21.88375 -11.431875 21.88375 -12 21 C-12.66 22.98 -13.32 24.96 -14 27 C-18.69985079 21.27844252 -18.60733057 15.18674505 -18 8 C-17.23694301 5.41802809 -16.27468601 3.39003627 -15 1 C-14.01 1 -13.02 1 -12 1 C-11.690625 1.804375 -11.38125 2.60875 -11.0625 3.4375 C-10.23664655 5.89080405 -10.23664655 5.89080405 -9 7 C-6.17671054 7.29718836 -4.59972723 7.42837659 -2.25 5.75 C-0.87958164 3.83141429 -0.3981173 2.30908032 0 0 Z " fill="#291201" transform="translate(22,69)"/>
<path d="M0 0 C6.01105844 3.55425655 9.44733597 8.80685907 11.5625 15.375 C12.58015749 22.13869919 11.01895819 27.5422268 7.5625 33.375 C3.40501173 38.72034206 -2.18517194 41.61840786 -8.80859375 42.796875 C-12.93964021 43.04766366 -15.60084484 42.68500292 -18.875 40.0625 C-23.40059227 35.31614713 -23.40059227 35.31614713 -23.5625 31.1875 C-23.52125 30.259375 -23.48 29.33125 -23.4375 28.375 C-22.89222656 28.808125 -22.34695312 29.24125 -21.78515625 29.6875 C-17.10388357 33.14443982 -13.50833059 35.33434743 -7.58203125 34.8984375 C-2.85876793 33.7455827 0.4552069 31.1562976 3 27.0625 C4.12767997 21.67469569 4.40221491 17.99222871 1.875 13.125 C-2.1758758 8.30774229 -5.06020329 5.9682369 -11.4375 5.375 C-11.52 6.1175 -11.6025 6.86 -11.6875 7.625 C-12.63117982 11.08515935 -13.481801 12.32874685 -16.4375 14.375 C-19.19558497 14.70723586 -21.64228781 14.56134748 -24.4375 14.375 C-24.56125 13.570625 -24.685 12.76625 -24.8125 11.9375 C-25.121875 10.6690625 -25.121875 10.6690625 -25.4375 9.375 C-26.0975 9.045 -26.7575 8.715 -27.4375 8.375 C-21.0771753 -1.5396238 -11.32122226 -5.13429245 0 0 Z " fill="#653508" transform="translate(116.4375,62.625)"/>
<path d="M0 0 C2.9375 1.8125 2.9375 1.8125 5 4 C6.299375 4.680625 6.299375 4.680625 7.625 5.375 C10.67522389 7.46199529 11.47827487 9.67987244 13 13 C13.53625 13.495 14.0725 13.99 14.625 14.5 C16.67610097 16.7375647 16.67316331 19.0584698 17 22 C17.66 22 18.32 22 19 22 C19.65272461 24.33159304 20.29725202 26.66497796 20.9375 29 C21.21110352 29.97259766 21.21110352 29.97259766 21.49023438 30.96484375 C23.57359753 38.61646841 24.17464896 46.0416322 24.125 53.9375 C24.12089111 54.73019287 24.11678223 55.52288574 24.11254883 56.33959961 C24.02842425 65.12564313 23.02452418 72.70998293 20 81 C19.67 82.0725 19.34 83.145 19 84.25 C17.96268707 87.10261054 16.55802927 89.40328456 15 92 C14.690625 93.03125 14.38125 94.0625 14.0625 95.125 C12.88707616 98.30555862 11.85906765 99.28455941 9 101 C8.01 100.505 8.01 100.505 7 100 C7.763125 98.989375 8.52625 97.97875 9.3125 96.9375 C11.79215363 93.45899998 13.45658043 89.9988598 15 86 C15.268125 85.33742188 15.53625 84.67484375 15.8125 83.9921875 C17.39214685 79.99750365 18.42923892 76.28070808 19 72 C19.165 71.21625 19.33 70.4325 19.5 69.625 C22.16946754 55.6102954 21.85033581 35.93625646 15 23 C14.875 20.25 14.875 20.25 15 18 C14.34 18 13.68 18 13 18 C12.505 16.02 12.505 16.02 12 14 C11.34 14 10.68 14 10 14 C9.4225 13.071875 8.845 12.14375 8.25 11.1875 C5.78228833 7.69157513 3.90285207 6.5966213 0 5 C0 4.34 0 3.68 0 3 C-11.84603502 3.35151439 -17.03254986 5.8303971 -25.36328125 14.09765625 C-27.2114757 16.00273354 -27.2114757 16.00273354 -28 19 C-28.66 19 -29.32 19 -30 19 C-30.185625 20.60875 -30.185625 20.60875 -30.375 22.25 C-30.95908344 26.98192236 -31.77401867 31.66794588 -32.59765625 36.36328125 C-33.07542325 39.04973869 -33.07542325 39.04973869 -33 42 C-34.485 42.495 -34.485 42.495 -36 43 C-35.77554019 29.20592452 -32.91551967 18.82757714 -23 9 C-22.20529297 8.15115234 -22.20529297 8.15115234 -21.39453125 7.28515625 C-14.79903215 0.35055693 -9.42075369 -1.20543719 0 0 Z M5 103 C4.34 104.32 3.68 105.64 3 107 C1.68 106.67 0.36 106.34 -1 106 C2.75 103 2.75 103 5 103 Z " fill="#DEDEDE" transform="translate(129,22)"/>
<path d="M0 0 C0.70275941 1.3146678 1.3680717 2.64985599 2 4 C2.639375 4.474375 3.27875 4.94875 3.9375 5.4375 C10.57460852 10.46561252 13.65335392 21.28214178 16 29 C16.30035156 29.95390625 16.60070312 30.9078125 16.91015625 31.890625 C21.17028632 47.98004648 21.31684932 67.48987889 15 83 C14.67 83 14.34 83 14 83 C14.14230808 81.58297487 14.28900746 80.1663904 14.4375 78.75 C14.51871094 77.96109375 14.59992188 77.1721875 14.68359375 76.359375 C15 74 15 74 15.50488281 72.22900391 C18.31433079 59.58094671 17.49430695 42.90048711 12.97265625 30.76171875 C11.83379568 27.52808653 11.4008765 24.3969009 11 21 C10.34 21 9.68 21 9 21 C8.566875 19.906875 8.13375 18.81375 7.6875 17.6875 C6.47394641 14.83106962 5.24533569 13.1477124 3 11 C2.72027344 10.21496094 2.44054687 9.42992187 2.15234375 8.62109375 C0.1335182 4.02912106 -3.50755234 1.96991554 -8 0 C-12.98021026 -0.98559862 -17.60454365 -1.14187556 -22.26171875 1.078125 C-24.3623359 2.58033452 -26.15523082 4.19358361 -28 6 C-28.71285156 6.63808594 -29.42570312 7.27617187 -30.16015625 7.93359375 C-34.47088865 11.94703426 -37.046826 15.34607527 -39 21 C-39.515625 21.99 -40.03125 22.98 -40.5625 24 C-43.12372955 29.83690733 -43.31225915 36.71323953 -44 43 C-44.99 43 -45.98 43 -47 43 C-46.85904936 41.3745692 -46.71207913 39.74965949 -46.5625 38.125 C-46.48128906 37.22007813 -46.40007812 36.31515625 -46.31640625 35.3828125 C-46 33 -46 33 -45 31 C-44.87120592 29.46019518 -44.77109468 27.9179189 -44.6875 26.375 C-43.94113452 18.41759571 -40.87309367 13.3510409 -35 8 C-34.29230469 7.26265625 -33.58460937 6.5253125 -32.85546875 5.765625 C-32.07816406 4.95609375 -31.30085938 4.1465625 -30.5 3.3125 C-29.7678125 2.54550781 -29.035625 1.77851563 -28.28125 0.98828125 C-20.88725729 -5.45614048 -8.33776233 -4.37283817 0 0 Z " fill="#AEAEAE" transform="translate(137,23)"/>
<path d="M0 0 C3 1 3 1 4.24609375 2.79296875 C14.22356311 22.84604652 16.82600558 48.47964867 10.390625 70.1015625 C6.73150937 80.89868429 1.60181055 91.31290141 -7 99 C-7.51691406 99.47050781 -8.03382812 99.94101563 -8.56640625 100.42578125 C-14.13026213 104.48363103 -21.47408692 103.6426456 -28 103 C-30.85799298 102.31886802 -32.47713233 101.58412621 -35 100 C-35.33 99.01 -35.66 98.02 -36 97 C-34.97132812 97.48339844 -34.97132812 97.48339844 -33.921875 97.9765625 C-27.07861076 100.37353473 -18.63541386 100.09297853 -11.9375 97.3125 C-2.53974167 92.79041035 1.57835155 82.46679904 5.04296875 73.21484375 C5.78958411 70.82340065 6.40373831 68.43287143 7 66 C7.17974365 65.29037109 7.3594873 64.58074219 7.54467773 63.84960938 C9.22405029 56.47792179 9.29759187 49.28537918 9.25 41.75 C9.25773437 40.50992188 9.26546875 39.26984375 9.2734375 37.9921875 C9.27085938 36.79335937 9.26828125 35.59453125 9.265625 34.359375 C9.26336914 33.28139648 9.26111328 32.20341797 9.25878906 31.09277344 C8.981986 27.7847157 8.13548882 25.10786987 7 22 C6.69838742 20.23414858 6.42684529 18.46286341 6.1875 16.6875 C5.35174348 11.71372952 3.68620897 8.03316058 1.0234375 3.77734375 C0 2 0 2 0 0 Z " fill="#898989" transform="translate(62,34)"/>
<path d="M0 0 C0.99 0.33 1.98 0.66 3 1 C3.44089724 7.17256141 2.9784753 12.02966105 -1 17 C-6.94059199 21.14765678 -13.80181797 23.11780642 -21 22 C-24.55276493 20.05872127 -26.76201421 17.35697869 -29 14 C-29.125 10.8125 -29.125 10.8125 -29 8 C-28.18208984 8.6496875 -28.18208984 8.6496875 -27.34765625 9.3125 C-22.66992193 12.76682688 -19.06351965 14.98361153 -13.13671875 14.5078125 C-9.28382168 13.59213312 -6.61792154 11.97059491 -4 9 C-2.3579601 6.09485249 -1.10355356 3.14615579 0 0 Z " fill="#BB8600" transform="translate(122,83)"/>
<path d="M0 0 C2.19921875 1.0859375 2.19921875 1.0859375 5.26171875 3.0859375 C2.45910543 3.93683708 1.54562698 4.18980636 -1.30078125 3.1484375 C-7.11163575 1.3523552 -13.02576404 1.27218234 -18.86328125 3.0234375 C-23.31571314 6.21757342 -26.96709652 10.12962188 -30.73828125 14.0859375 C-31.45371094 14.77558594 -32.16914062 15.46523438 -32.90625 16.17578125 C-37.45652362 20.92009639 -38.03720085 26.32770374 -38.484375 32.59765625 C-38.72610372 34.96659773 -39.20423726 37.05328845 -39.86328125 39.3359375 C-40.98498569 42.96442101 -40.98498569 42.96442101 -40.11328125 46.1484375 C-39.55785917 50.49924378 -41.35918517 52.48124646 -43.73828125 56.0859375 C-44.06828125 56.0859375 -44.39828125 56.0859375 -44.73828125 56.0859375 C-45.3460738 37.6495636 -41.86584607 21.22962869 -29.62109375 6.92578125 C-21.36381411 -1.14305425 -11.23043733 -3.74881931 0 0 Z " fill="#898989" transform="translate(131.73828125,18.9140625)"/>
<path d="M0 0 C4.13438143 1.93524237 4.13438143 1.93524237 6 4 C6.56376374 6.57110434 6.68719346 8.93296905 6.69921875 11.5625 C7.061537 14.49868948 8.15710174 15.74378682 10 18 C10 18.66 10 19.32 10 20 C10.99 20.33 11.98 20.66 13 21 C13.144375 21.639375 13.28875 22.27875 13.4375 22.9375 C13.79586791 25.17920606 13.79586791 25.17920606 15.9375 26.1875 C16.618125 26.455625 17.29875 26.72375 18 27 C18.66 27.33 19.32 27.66 20 28 C20.33 28.99 20.66 29.98 21 31 C26.11331796 33.68696322 31.36309385 33.57856808 37 33 C40.43595207 31.5774139 40.43595207 31.5774139 43 30 C43.66 30.33 44.32 30.66 45 31 C41.8229074 34.6787388 38.5269308 35.84311105 33.73046875 36.3359375 C20.58802142 36.48083769 20.58802142 36.48083769 15 32 C13.31359435 30.3020172 11.79255496 28.57265667 10.32421875 26.68359375 C9.03498903 24.96212373 9.03498903 24.96212373 7.4296875 23.50390625 C5.13587068 21.09101151 4.25284268 18.05039957 3 15 C2.34 14.01 1.68 13.02 1 12 C0.5859375 9.08203125 0.5859375 9.08203125 0.375 5.8125 C0.30023438 4.72582031 0.22546875 3.63914062 0.1484375 2.51953125 C0.09945313 1.68808594 0.05046875 0.85664062 0 0 Z " fill="#CDCDCD" transform="translate(8,98)"/>
<path d="M0 0 C1.65 1.32 3.3 2.64 5 4 C4.67 4.33 4.34 4.66 4 5 C3.9182754 12.46962798 6.09970357 18.93857599 11.25 24.375 C11.8275 24.91125 12.405 25.4475 13 26 C13 26.66 13 27.32 13 28 C13.515625 28.2475 14.03125 28.495 14.5625 28.75 C17 30 17 30 20.0625 32.125 C25.93054656 35.49975639 32.99628599 34.52865027 39.4375 33.375 C43.76176245 31.70598642 44.67853698 29.8967415 47 26 C49.25 25.125 49.25 25.125 51 25 C47.93913052 32.09565197 43.89480298 33.9607608 37 37 C36.67 37.33 36.34 37.66 36 38 C34.08647154 38.12619896 32.16764977 38.17580701 30.25 38.1875 C29.20328125 38.20167969 28.1565625 38.21585938 27.078125 38.23046875 C23.97919323 37.99844213 21.79723986 37.31055867 19 36 C19 35.34 19 34.68 19 34 C18.2575 33.773125 17.515 33.54625 16.75 33.3125 C13.41721308 31.7218517 12.14676225 29.977767 10 27 C9.01 25.9171875 9.01 25.9171875 8 24.8125 C5.1753883 20.8403898 3.6589345 16.55839966 2 12 C1.5875 10.9275 1.175 9.855 0.75 8.75 C-0.07431322 5.72751818 -0.14850836 3.11867558 0 0 Z " fill="#AEAEAE" transform="translate(91,98)"/>
<path d="M0 0 C2 2 2 2 2.375 5.875 C2.3053021 9.06948727 2.12466451 9.83378065 0.125 12.5 C-2 14 -2 14 -4 14 C-4 14.66 -4 15.32 -4 16 C-8.98196902 18.96772796 -14.37890161 18.77196418 -20 18 C-22.64463098 16.59961422 -23.9681617 15.25759811 -26 13 C-25.67 12.01 -25.34 11.02 -25 10 C-23.7934375 10.495 -23.7934375 10.495 -22.5625 11 C-17.30072059 12.47699071 -12.47189734 12.84269227 -7.25 11.0625 C-3.85473559 7.95017429 -2.01905816 4.09825849 0 0 Z " fill="#CF9E00" transform="translate(38,85)"/>
<path d="M0 0 C3.21616681 2.60050059 3.98200106 5.4110036 5.125 9.3125 C5.45757812 10.42238281 5.79015625 11.53226563 6.1328125 12.67578125 C9.80928579 26.76892887 9.96197049 44.20330157 5 58 C4.608125 59.2375 4.21625 60.475 3.8125 61.75 C3.544375 62.4925 3.27625 63.235 3 64 C2.67 64 2.34 64 2 64 C2.14194764 61.93722893 2.28872216 59.87478969 2.4375 57.8125 C2.51871094 56.66394531 2.59992188 55.51539063 2.68359375 54.33203125 C3 51 3 51 3.50927734 48.66235352 C4.45306592 43.54194832 4.18463168 38.31665186 4.1875 33.125 C4.19974609 31.96613281 4.21199219 30.80726562 4.22460938 29.61328125 C4.23480446 23.66614575 3.93177497 18.68127177 2 13 C1.58631797 10.69410572 1.20965516 8.38118221 0.875 6.0625 C0.70742188 4.91910156 0.53984375 3.77570312 0.3671875 2.59765625 C0.24601562 1.74042969 0.12484375 0.88320313 0 0 Z " fill="#E4E4E4" transform="translate(62,44)"/>
<path d="M0 0 C4.92127034 -0.16682272 8.50343896 -0.24828052 13 2 C13 2.33 13 2.66 13 3 C11.87464844 2.86078125 11.87464844 2.86078125 10.7265625 2.71875 C4.616107 2.28778588 0.63827527 2.57610002 -4.3125 6.375 C-8.40257717 10.07116925 -11.55118042 14.1379158 -14.53515625 18.7578125 C-16 21 -16 21 -18.3125 23.5625 C-21.47191583 28.12610065 -22.1989626 33.10985534 -21.625 38.5625 C-21.315625 39.7690625 -21.315625 39.7690625 -21 41 C-22.32 41.66 -23.64 42.32 -25 43 C-25.32280913 36.22100828 -24.43483377 31.29276672 -22 25 C-21.74863281 24.24976562 -21.49726563 23.49953125 -21.23828125 22.7265625 C-19.36842874 17.24561916 -19.36842874 17.24561916 -16 15 C-14.9935725 13.33720673 -13.99414593 11.67016516 -13 10 C-10.9375 7.6875 -10.9375 7.6875 -9 6 C-8.34 6 -7.68 6 -7 6 C-6.67 5.01 -6.34 4.02 -6 3 C-4.02 2.67 -2.04 2.34 0 2 C0 1.34 0 0.68 0 0 Z " fill="#E5E5E5" transform="translate(34,23)"/>
<path d="M0 0 C2.01100475 5.56995395 -0.74593692 10.85063175 -3 16 C-7.11768944 22.85241752 -12.81680325 28.40840163 -20 32 C-34.64876589 32.98798421 -34.64876589 32.98798421 -41 29 C-41.33 28.01 -41.66 27.02 -42 26 C-40.97132812 26.48339844 -40.97132812 26.48339844 -39.921875 26.9765625 C-33.07861076 29.37353473 -24.63541386 29.09297853 -17.9375 26.3125 C-11.64588784 23.28505098 -8.19875191 18.15383096 -5.3125 12 C-5.01794922 11.39671875 -4.72339844 10.7934375 -4.41992188 10.171875 C-2.80473461 6.83261143 -1.33098712 3.46187783 0 0 Z " fill="#8E8E8E" transform="translate(68,105)"/>
<path d="M0 0 C-2.16771729 3.25157594 -3.70339808 4.04717423 -7 6 C-12.53316373 10.74271177 -16.68671656 15.06014967 -19 22 C-19.515625 22.99 -20.03125 23.98 -20.5625 25 C-23.12372955 30.83690733 -23.31225915 37.71323953 -24 44 C-24.99 44 -25.98 44 -27 44 C-26.85904936 42.3745692 -26.71207913 40.74965949 -26.5625 39.125 C-26.48128906 38.22007813 -26.40007812 37.31515625 -26.31640625 36.3828125 C-26 34 -26 34 -25 32 C-24.87120592 30.46019518 -24.77109468 28.9179189 -24.6875 27.375 C-23.94113452 19.41759571 -20.87309367 14.3510409 -15 9 C-14.30390625 8.23945313 -13.6078125 7.47890625 -12.890625 6.6953125 C-12.12234375 5.86773437 -11.3540625 5.04015625 -10.5625 4.1875 C-9.84191406 3.39730469 -9.12132813 2.60710938 -8.37890625 1.79296875 C-5.40239866 -0.45040889 -3.64099334 -0.35100224 0 0 Z " fill="#C6C6C6" transform="translate(117,22)"/>
<path d="M0 0 C0.33 0.66 0.66 1.32 1 2 C3.02463255 2.65213292 3.02463255 2.65213292 5 3 C5.04690937 5.6738343 5.04234611 8.32748999 5 11 C5 12.175625 5 13.35125 5 14.5625 C3.5162013 19.66305804 0.2943316 22.05758761 -4 25 C-8.73013236 27.31474562 -13.81155393 27.88369823 -19 27 C-22.8463123 25.23135383 -26.01278904 22.98721096 -29 20 C-29.25 16.5 -29.25 16.5 -29 13 C-28.34 12.34 -27.68 11.68 -27 11 C-23 16.5 -23 16.5 -23 21 C-20.76244021 23.38816478 -19.38588857 23.95595837 -16.125 24.328125 C-14.578125 24.28945312 -14.578125 24.28945312 -13 24.25 C-11.453125 24.22679687 -11.453125 24.22679687 -9.875 24.203125 C-7.43476759 24.03071728 -5.33479406 23.69594823 -3 23 C-3 22.34 -3 21.68 -3 21 C-2.175 20.46375 -1.35 19.9275 -0.5 19.375 C2.15726467 17.33009191 2.15726467 17.33009191 2.33203125 14.9609375 C2.31445191 12.97095594 2.16526542 10.98318506 2 9 C1.34 8.67 0.68 8.34 0 8 C0 5.36 0 2.72 0 0 Z " fill="#896012" transform="translate(37,78)"/>
<path d="M0 0 C0.12375 0.804375 0.2475 1.60875 0.375 2.4375 C0.684375 3.7059375 0.684375 3.7059375 1 5 C1.66 5.33 2.32 5.66 3 6 C2.01 6.33 1.02 6.66 0 7 C0.144375 7.86882812 0.28875 8.73765625 0.4375 9.6328125 C0.623125 10.78523438 0.80875 11.93765625 1 13.125 C1.185625 14.26195313 1.37125 15.39890625 1.5625 16.5703125 C1.96970858 19.76253689 2 22.78905851 2 26 C2.33 26.99 2.66 27.98 3 29 C5.50447516 30.21869929 5.50447516 30.21869929 8 31 C7.01 31.33 6.02 31.66 5 32 C0.06736337 28.96453131 -2.81677197 24.65021981 -4.59765625 19.15625 C-5.10958752 16.41269603 -5.1700601 13.79038415 -5.1875 11 C-5.20167969 9.96875 -5.21585937 8.9375 -5.23046875 7.875 C-5.00041251 5.00514593 -4.57370433 3.38540446 -3 1 C-1 0 -1 0 0 0 Z " fill="#592B03" transform="translate(92,71)"/>
<path d="M0 0 C0.33 0 0.66 0 1 0 C5.55121928 20.05941844 2.79041352 43.57712214 -7.86328125 61.26171875 C-8.23839844 61.83535156 -8.61351562 62.40898438 -9 63 C-9.66 63 -10.32 63 -11 63 C-10.25447418 58.58570238 -9.63329171 54.91929441 -7.0625 51.1875 C-4.45351825 47.15543729 -3.64914289 43.26207196 -2.61328125 38.609375 C-2 36 -2 36 -1 34 C0.0808114 26.63083133 0.11829025 19.37476953 0.0625 11.9375 C0.05798828 10.78572266 0.05347656 9.63394531 0.04882812 8.44726562 C0.03714426 5.63145482 0.02076281 2.81575602 0 0 Z " fill="#CCCCCC" transform="translate(152,60)"/>
<path d="M0 0 C0.99 0 1.98 0 3 0 C3.66 1.98 4.32 3.96 5 6 C4.67 6.33 4.34 6.66 4 7 C3.81403613 8.87144591 3.6766224 10.74780304 3.5625 12.625 C3.21089727 17.37730787 2.53405578 21.50010305 1 26 C-3.69985079 20.27844252 -3.60733057 14.18674505 -3 7 C-2.23694301 4.41802809 -1.27468601 2.39003627 0 0 Z " fill="#5D2C01" transform="translate(7,70)"/>
<path d="M0 0 C0.66 0.33 1.32 0.66 2 1 C1.33613281 1.57105469 0.67226563 2.14210938 -0.01171875 2.73046875 C-7.03839112 9.18269783 -10.20142276 14.96719377 -13 24 C-13.31710938 24.81726563 -13.63421875 25.63453125 -13.9609375 26.4765625 C-15.87882387 31.45602896 -16.19621188 35.51555286 -15.71484375 40.8359375 C-16 43 -16 43 -18.00390625 44.7890625 C-18.66261719 45.18867187 -19.32132813 45.58828125 -20 46 C-20.20743489 41.12528017 -19.65900285 36.99821998 -18.5 32.265625 C-18.02242599 30.10161777 -17.76443211 28.01692555 -17.5625 25.8125 C-16.00336814 15.24505073 -7.4906955 7.08087021 0 0 Z " fill="#C4C4C3" transform="translate(26,24)"/>
<path d="M0 0 C1.53333984 -0.02513672 1.53333984 -0.02513672 3.09765625 -0.05078125 C6.29809129 0.35862791 7.53050288 1.24481525 9.9375 3.3125 C10.700625 3.539375 11.46375 3.76625 12.25 4 C19.24818355 7.41771755 22.70807049 14.30419666 25.9375 21.0625 C26.25251465 21.7124292 26.5675293 22.3623584 26.89208984 23.03198242 C28.13550575 25.77110665 29.01075519 27.73744675 28.625 30.765625 C28.398125 31.27609375 28.17125 31.7865625 27.9375 32.3125 C27.68355469 31.73242188 27.42960937 31.15234375 27.16796875 30.5546875 C26.45069796 28.92672458 25.72633106 27.30187557 24.99609375 25.6796875 C24.2010407 23.90181978 23.43655492 22.11023182 22.6875 20.3125 C20.45465952 16.48477347 17.61586356 13.47984734 14.58203125 10.265625 C12.9375 8.3125 12.9375 8.3125 12.9375 6.3125 C4.58390541 2.84730521 -3.23448157 2.34366136 -12.0625 4.3125 C-11.0625 2.3125 -11.0625 2.3125 -8.87890625 1.20703125 C-5.78437192 0.22416251 -3.24221355 0.01229664 0 0 Z " fill="#AAAAAA" transform="translate(40.0625,19.6875)"/>
<path d="M0 0 C5.11630817 3.6531745 9.5207207 8.6495165 10.86328125 14.8515625 C10.95609375 15.73585938 11.04890625 16.62015625 11.14453125 17.53125 C10.48453125 16.21125 9.82453125 14.89125 9.14453125 13.53125 C8.48453125 13.53125 7.82453125 13.53125 7.14453125 13.53125 C7.14453125 12.21125 7.14453125 10.89125 7.14453125 9.53125 C6.42265625 9.304375 5.70078125 9.0775 4.95703125 8.84375 C1.59302305 7.27387951 -0.34843562 5.24155608 -2.85546875 2.53125 C-5.47998492 -0.09326617 -7.34325155 -0.0520368 -10.98046875 -0.59375 C-12.07617188 -0.76132812 -13.171875 -0.92890625 -14.30078125 -1.1015625 C-15.14382812 -1.22273438 -15.986875 -1.34390625 -16.85546875 -1.46875 C-16.85546875 -0.80875 -16.85546875 -0.14875 -16.85546875 0.53125 C-17.74234375 0.758125 -18.62921875 0.985 -19.54296875 1.21875 C-23.33592863 2.72162089 -25.14344968 4.52603968 -27.85546875 7.53125 C-28.39171875 8.02625 -28.92796875 8.52125 -29.48046875 9.03125 C-31.29303421 11.00859413 -32.53526599 13.20517848 -33.85546875 15.53125 C-34.18546875 14.87125 -34.51546875 14.21125 -34.85546875 13.53125 C-32.95261038 9.71914783 -30.47114245 6.84973432 -27.48046875 3.84375 C-26.73023438 3.07675781 -25.98 2.30976563 -25.20703125 1.51953125 C-18.17596026 -4.42534439 -7.9675475 -4.0196636 0 0 Z " fill="#D4D4D4" transform="translate(50.85546875,24.46875)"/>
<path d="M0 0 C0.33 0 0.66 0 1 0 C1.46747779 11.7042588 1.16420275 22.29366079 -6 32 C-6.33 33.051875 -6.66 34.10375 -7 35.1875 C-8.12372713 38.34798255 -9.17088487 39.30253092 -12 41 C-12.66 40.67 -13.32 40.34 -14 40 C-13.236875 38.989375 -12.47375 37.97875 -11.6875 36.9375 C-9.20784637 33.45899998 -7.54341957 29.9988598 -6 26 C-5.731875 25.33742188 -5.46375 24.67484375 -5.1875 23.9921875 C-3.60785315 19.99750365 -2.57076108 16.28070808 -2 12 C-1.835 11.195625 -1.67 10.39125 -1.5 9.5625 C-0.8809054 6.38964019 -0.43950669 3.2021202 0 0 Z M-16 43 C-16.66 44.32 -17.32 45.64 -18 47 C-19.32 46.67 -20.64 46.34 -22 46 C-18.25 43 -18.25 43 -16 43 Z " fill="#EBEBEB" transform="translate(150,82)"/>
<path d="M0 0 C0.66 0.33 1.32 0.66 2 1 C2.32523926 4.57763189 2.42956587 6.39542581 0.3125 9.375 C-2.42227885 11.29673649 -3.72640914 11.51688277 -7 11 C-9 9 -9 9 -9.3125 6.0625 C-9 3 -9 3 -7.875 1.125 C-5.18282457 -0.49030526 -3.07846795 -0.26199727 0 0 Z " fill="#F7F6F6" transform="translate(102,66)"/>
<path d="M0 0 C0.90105469 0.00902344 1.80210938 0.01804687 2.73046875 0.02734375 C3.41753906 0.03894531 4.10460937 0.05054687 4.8125 0.0625 C4.8125 0.3925 4.8125 0.7225 4.8125 1.0625 C4.23242188 1.08828125 3.65234375 1.1140625 3.0546875 1.140625 C-5.85296909 1.78738554 -10.38217864 6.03855252 -16.55078125 12.16015625 C-18.3989757 14.06523354 -18.3989757 14.06523354 -19.1875 17.0625 C-19.8475 17.0625 -20.5075 17.0625 -21.1875 17.0625 C-21.373125 18.67125 -21.373125 18.67125 -21.5625 20.3125 C-22.14658344 25.04442236 -22.96151867 29.73044588 -23.78515625 34.42578125 C-24.26292325 37.11223869 -24.26292325 37.11223869 -24.1875 40.0625 C-25.6725 40.5575 -25.6725 40.5575 -27.1875 41.0625 C-26.96303938 27.26837464 -24.10264944 16.89009845 -14.1875 7.0625 C-13.63449219 6.47339844 -13.08148438 5.88429688 -12.51171875 5.27734375 C-8.40091222 0.96252697 -5.85444107 -0.0760317 0 0 Z " fill="#E3E3E3" transform="translate(120.1875,23.9375)"/>
<path d="M0 0 C4.13438143 1.93524237 4.13438143 1.93524237 6 4 C6.56376374 6.57110434 6.68719346 8.93296905 6.69921875 11.5625 C7.061537 14.49868948 8.15710174 15.74378682 10 18 C10 18.66 10 19.32 10 20 C10.99 20.33 11.98 20.66 13 21 C13.144375 21.639375 13.28875 22.27875 13.4375 22.9375 C13.79586791 25.17920606 13.79586791 25.17920606 15.9375 26.1875 C16.618125 26.455625 17.29875 26.72375 18 27 C18.66 27.33 19.32 27.66 20 28 C20 28.66 20 29.32 20 30 C17.33230578 29.84756033 15.55665291 29.55349011 13.625 27.6328125 C12.39651749 26.10452176 11.19710019 24.55299484 10 23 C9.34 22.67 8.68 22.34 8 22 C7.375 18.9375 7.375 18.9375 7 16 C6.34 16 5.68 16 5 16 C4.87625 15.360625 4.7525 14.72125 4.625 14.0625 C4.41875 13.381875 4.2125 12.70125 4 12 C3.34 11.67 2.68 11.34 2 11 C1.3671875 8.49609375 1.3671875 8.49609375 0.875 5.4375 C0.70742187 4.42558594 0.53984375 3.41367188 0.3671875 2.37109375 C0.24601563 1.58863281 0.12484375 0.80617188 0 0 Z " fill="#D4D4D3" transform="translate(8,98)"/>
<path d="M0 0 C2 2 2 2 2.3125 4.9375 C2 8 2 8 0.8125 9.875 C-1.61758081 11.38332602 -3.19015752 11.36023622 -6 11 C-8 9 -8 9 -8.3125 6.0625 C-8 3 -8 3 -6.8125 1.125 C-4.38241919 -0.38332602 -2.80984248 -0.36023622 0 0 Z " fill="#EEEBE8" transform="translate(19,66)"/>
<path d="M0 0 C0.33 0 0.66 0 1 0 C0.98952637 0.90242432 0.97905273 1.80484863 0.96826172 2.73461914 C0.93400464 6.10980833 0.90901633 9.48481045 0.89013672 12.86010742 C0.8801315 14.31586641 0.86652304 15.77160557 0.84912109 17.22729492 C0.82462956 19.3299654 0.81346206 21.43236824 0.8046875 23.53515625 C0.79421387 24.797229 0.78374023 26.05930176 0.77294922 27.35961914 C1.01052882 31.16881211 1.87357599 34.36552253 3 38 C3.1953125 41.08984375 3.1953125 41.08984375 3.125 43.9375 C3.10695313 44.89527344 3.08890625 45.85304687 3.0703125 46.83984375 C3.03550781 47.90912109 3.03550781 47.90912109 3 49 C-5.48917561 36.26623659 -2.67517191 13.94911069 0 0 Z " fill="#838180" transform="translate(87,57)"/>
<path d="M0 0 C0.33 0 0.66 0 1 0 C1.15406563 4.31383769 1.13345973 7.96723395 -0.0625 12.125 C-1.25536572 15.85528351 -1.25536572 15.85528351 -0.375 19.0625 C0.18042208 23.41330628 -1.62090392 25.39530896 -4 29 C-4.33 29 -4.66 29 -5 29 C-5.32623537 7.90344603 -5.32623537 7.90344603 0 0 Z " fill="#939393" transform="translate(92,46)"/>
<path d="M0 0 C5.25916664 2.62958332 7.35614453 12.66857963 9.1484375 17.96484375 C11.36917395 25.31599443 11.45836577 32.18711431 11.25 39.8125 C11.23195313 41.08931641 11.21390625 42.36613281 11.1953125 43.68164062 C11.14876649 46.7885869 11.08340346 49.8938625 11 53 C10.67 53 10.34 53 10 53 C9.98541748 52.25951416 9.97083496 51.51902832 9.95581055 50.75610352 C9.88072778 47.35774587 9.78426719 43.9603066 9.6875 40.5625 C9.66494141 39.39783203 9.64238281 38.23316406 9.61914062 37.03320312 C9.40589196 30.15108697 8.65497903 24.36205742 6 18 C5.63777344 17.05769531 5.27554688 16.11539063 4.90234375 15.14453125 C4.58394531 14.37496094 4.26554687 13.60539062 3.9375 12.8125 C0 3.11206897 0 3.11206897 0 0 Z " fill="#BDBDBD" transform="translate(61,37)"/>
<path d="M0 0 C0 1.98 0 3.96 0 6 C-5.38740579 9.59160386 -8.52373398 10.62673542 -15 10 C-18 9 -18 9 -20 8 C-20 7.67 -20 7.34 -20 7 C-19.3709375 6.99742188 -18.741875 6.99484375 -18.09375 6.9921875 C-11.81864212 6.70867359 -8.33691103 5.40817046 -3.59375 1.27734375 C-2 0 -2 0 0 0 Z " fill="#E2B200" transform="translate(121,91)"/>
<path d="M0 0 C0.33 0 0.66 0 1 0 C1.55338334 18.45533431 1.54207233 35.22092935 -7 52 C-8.20420068 48.38739797 -7.3648172 46.94472266 -6.05517578 43.5012207 C-0.77601895 29.4239643 -0.5355814 14.86164404 0 0 Z " fill="#858585" transform="translate(74,65)"/>
<path d="M0 0 C0.66 0.33 1.32 0.66 2 1 C-8 11 -8 11 -10.234375 13.125 C-12.2201451 15.23378241 -13.15517602 17.37174665 -14.20703125 20.05078125 C-15.59720431 23.46800468 -17.32792721 26.7135121 -19 30 C-20 27 -20 27 -18.48828125 23.3828125 C-17.77336412 21.95830351 -17.04762279 20.5391877 -16.3125 19.125 C-15.95994141 18.41730469 -15.60738281 17.70960937 -15.24414062 16.98046875 C-12.11618619 10.8389275 -9.10550364 6.44413026 -3 3 C-1.24850835 1.41754725 -1.24850835 1.41754725 0 0 Z " fill="#909090" transform="translate(109,22)"/>
<path d="M0 0 C1 2 1 2 0.328125 4.05859375 C-0.02765625 4.84363281 -0.3834375 5.62867187 -0.75 6.4375 C-1.09546875 7.21996094 -1.4409375 8.00242187 -1.796875 8.80859375 C-4.71322282 14.12051299 -9.35782514 16.27435731 -15 18 C-21.34728603 18.80767678 -26.49953427 18.56786966 -32 15 C-29.15872989 13.57936495 -27.44955157 14.44782029 -24.375 15.125 C-18.71546462 16.12134934 -14.92220481 16.05912729 -10 13 C-5.5659894 9.3909216 -2.84694523 4.88220821 0 0 Z " fill="#DEDEDE" transform="translate(60,114)"/>
<path d="M0 0 C6.42768644 2.92396717 11.56970848 8.5753985 15.4921875 14.34375 C15.1621875 15.00375 14.8321875 15.66375 14.4921875 16.34375 C13.90050781 15.64507812 13.30882812 14.94640625 12.69921875 14.2265625 C11.90902344 13.31648438 11.11882813 12.40640625 10.3046875 11.46875 C9.52738281 10.56382813 8.75007813 9.65890625 7.94921875 8.7265625 C5.44187626 6.2949585 3.72832731 5.48956027 0.4921875 4.34375 C-0.46880859 3.54904297 -0.46880859 3.54904297 -1.44921875 2.73828125 C-4.21366418 0.86559241 -6.13501279 0.97698279 -9.4453125 1.03125 C-10.97478516 1.03705078 -10.97478516 1.03705078 -12.53515625 1.04296875 C-15.52678664 1.20666806 -15.52678664 1.20666806 -18.19921875 2.42578125 C-20.5078125 3.34375 -20.5078125 3.34375 -23.5078125 2.34375 C-16.32059544 -1.8248359 -8.01835902 -2.09826217 0 0 Z " fill="#868686" transform="translate(48.5078125,18.65625)"/>
<path d="M0 0 C1.65 0.33 3.3 0.66 5 1 C5.43824627 7.90237875 4.65568775 13.02281711 1 19 C0.34 19.33 -0.32 19.66 -1 20 C-0.67 19.34 -0.34 18.68 0 18 C1.28687011 14.13938967 1.13757618 11.05849717 1 7 C0.01 7 -0.98 7 -2 7 C-2 5.02 -2 3.04 -2 1 C-1.67 1.66 -1.34 2.32 -1 3 C-0.34 3 0.32 3 1 3 C0.67 2.01 0.34 1.02 0 0 Z " fill="#7F5721" transform="translate(123,77)"/>
<path d="M0 0 C0.66 0.33 1.32 0.66 2 1 C-0.68033621 6.23883896 -3.79544256 8.63106409 -9.1328125 11.0859375 C-14.01868192 12.643558 -18.95179271 12.88824762 -24 12 C-26.3515625 10.46875 -26.3515625 10.46875 -28 9 C-27.0821875 9.02320313 -26.164375 9.04640625 -25.21875 9.0703125 C-15.39368946 9.35691724 -15.39368946 9.35691724 -6 7 C-3.59478763 4.06057006 -3.59478763 4.06057006 -2 1 C-1.34 0.67 -0.68 0.34 0 0 Z " fill="#C1C1C1" transform="translate(140,123)"/>
<path d="M0 0 C5.87582175 2.79801036 8.13737173 6.94220889 10.875 12.73828125 C12.54000529 17.56564035 12.53519014 21.96524828 12 27 C9.81257986 23.7188698 9.45557194 21.66915644 8.875 17.8125 C8.70742187 16.72582031 8.53984375 15.63914062 8.3671875 14.51953125 C8.24601563 13.68808594 8.12484375 12.85664062 8 12 C7.34 12 6.68 12 6 12 C5.566875 10.906875 5.13375 9.81375 4.6875 8.6875 C3.49126084 5.86209702 2.29266065 4.07431202 0 2 C0 1.34 0 0.68 0 0 Z " fill="#BABABA" transform="translate(140,32)"/>
<path d="M0 0 C4.92127034 -0.16682272 8.50343896 -0.24828052 13 2 C13 2.33 13 2.66 13 3 C12.24976562 2.9071875 11.49953125 2.814375 10.7265625 2.71875 C4.52462137 2.2813335 0.61738332 2.6035057 -4.375 6.5 C-8.5166004 10.24080036 -11.94766127 14.33463674 -15 19 C-15 15.19327059 -14.24639761 14.08879671 -12 11 C-9.96766733 9.11050195 -7.88157664 7.31793235 -5.7421875 5.55078125 C-3.89547687 4.09990784 -3.89547687 4.09990784 -3 2 C-2.01 2 -1.02 2 0 2 C0 1.34 0 0.68 0 0 Z " fill="#EBEBEB" transform="translate(34,23)"/>
<path d="M0 0 C1.17046875 0.01804687 2.3409375 0.03609375 3.546875 0.0546875 C4.88492188 0.08949219 4.88492188 0.08949219 6.25 0.125 C2.98240713 2.30339525 2.67858322 2.25900884 -0.9375 1.875 C-6.68504214 1.75370447 -9.72010054 4.26549798 -13.75 8.125 C-18.29774115 12.63072969 -21.09978963 17.31492342 -23.75 23.125 C-24.79449911 19.99150268 -24.68423645 19.13531744 -23.75 16.125 C-23.09 16.125 -22.43 16.125 -21.75 16.125 C-21.68425781 15.57070313 -21.61851563 15.01640625 -21.55078125 14.4453125 C-20.41600649 11.15723345 -18.40793338 9.42341195 -15.9375 7 C-15.06480469 6.13117187 -14.19210938 5.26234375 -13.29296875 4.3671875 C-8.76258327 0.37265406 -6.05607767 -0.12112155 0 0 Z " fill="#F1F1F1" transform="translate(122.75,24.875)"/>
<path d="M0 0 C1.61687861 4.04219652 0.39790201 7.01682138 -1 11 C-2.19076866 13.45126702 -3.39552352 15.77276032 -4.75 18.125 C-5.07226562 18.71925781 -5.39453125 19.31351563 -5.7265625 19.92578125 C-8.20136516 24.27107429 -10.86042114 27.15542308 -15 30 C-15.99 29.67 -16.98 29.34 -18 29 C-16.47005208 27.76302083 -14.94010417 26.52604167 -13.41015625 25.2890625 C-11.86733563 24.0333609 -11.86733563 24.0333609 -11 22 C-10.34 22 -9.68 22 -9 22 C-8.773125 21.360625 -8.54625 20.72125 -8.3125 20.0625 C-7.18719142 17.43677997 -5.94036844 15.14334943 -4.5 12.6875 C-2.12001396 8.50321776 -0.94159553 4.70797764 0 0 Z " fill="#F0F0F0" transform="translate(64,99)"/>
<path d="M0 0 C2.5625 2.25 2.5625 2.25 5 5 C4.8125 7.3125 4.8125 7.3125 4 9 C6.61514317 11.12038635 9.19637616 13.13091744 12 15 C5.89515195 14.63370912 2.99698999 13.4844278 -1 9 C-1.41576711 5.4956772 -1.58939347 3.17878694 0 0 Z " fill="#814E04" transform="translate(9,89)"/>
<path d="M0 0 C0.33 0.99 0.66 1.98 1 3 C1.99 3.33 2.98 3.66 4 4 C4 5.32 4 6.64 4 8 C4.66 8 5.32 8 6 8 C6.0825 8.94875 6.165 9.8975 6.25 10.875 C6.4975 11.90625 6.745 12.9375 7 14 C7.6084375 14.2990625 8.216875 14.598125 8.84375 14.90625 C11.63326227 16.32121999 12.59772508 17.99638082 14.25 20.625 C14.77078125 21.44226563 15.2915625 22.25953125 15.828125 23.1015625 C16.21484375 23.72804687 16.6015625 24.35453125 17 25 C12.84513925 23.15633568 10.82622092 20.55089295 8 17 C7.46375 16.525625 6.9275 16.05125 6.375 15.5625 C4.18366463 13.07234617 3.25066337 10.04509342 2 7 C1.34 6.01 0.68 5.02 0 4 C0 2.68 0 1.36 0 0 Z " fill="#ACACAC" transform="translate(9,106)"/>
<path d="M0 0 C0.33 0 0.66 0 1 0 C1.73904431 7.02092091 -1.17652364 13.26478545 -5 19 C-6.92746579 20.92746579 -8.47668864 22.00869911 -11 23 C-9.89991806 19.79976162 -8.47586408 17.12011843 -6.625 14.3125 C-3.71957048 9.8034803 -1.84148818 5.02037002 0 0 Z " fill="#989898" transform="translate(150,106)"/>
<path d="M0 0 C0.33 0 0.66 0 1 0 C1.07482575 4.3924631 1.12891683 8.78457672 1.16479492 13.17749023 C1.17977042 14.66811598 1.20015819 16.15869851 1.22631836 17.64916992 C1.36806712 25.94008253 1.33501523 33.23580444 -2 41 C-3.02202275 37.82625595 -2.91707602 35.84342543 -2.1015625 32.6328125 C-0.66927516 26.07799162 -0.54685863 19.56316493 -0.375 12.875 C-0.33632812 11.63234375 -0.29765625 10.3896875 -0.2578125 9.109375 C-0.16438732 6.07305681 -0.07861881 3.0367315 0 0 Z " fill="#A4A4A4" transform="translate(72,63)"/>
<path d="M0 0 C0.66 0.33 1.32 0.66 2 1 C1.32453125 1.6290625 0.6490625 2.258125 -0.046875 2.90625 C-5.34309953 7.98817643 -9.19127778 12.21225463 -12 19 C-12.6572607 20.33799499 -13.32166352 21.67256569 -14 23 C-14.66 23 -15.32 23 -16 23 C-16.33 23.99 -16.66 24.98 -17 26 C-15.09975772 14.91525337 -7.94150437 7.50701477 0 0 Z " fill="#B4B4B4" transform="translate(26,24)"/>
<path d="M0 0 C0.68320312 0.32484375 1.36640625 0.6496875 2.0703125 0.984375 C9.50021347 3.560074 18.69822538 2.78162843 26 0 C22.77399242 3.44849086 20.87635431 4.89355774 16.0390625 5.16796875 C14.91242187 5.17441406 13.78578125 5.18085938 12.625 5.1875 C11.50351562 5.20167969 10.38203125 5.21585938 9.2265625 5.23046875 C6.00273929 5.00019566 3.82888769 4.54817308 1 3 C0.67 2.01 0.34 1.02 0 0 Z " fill="#ABABAB" transform="translate(26,131)"/>
<path d="M0 0 C2.87839991 1.2903172 5.09054786 2.45406381 7 5 C7.6875 8.1875 7.6875 8.1875 8 11 C8.66 11 9.32 11 10 11 C11.29243536 15.1196377 12.26252625 18.66831683 12 23 C8.57680639 18.92476951 6.15506633 14.42937249 5.8125 9.0625 C5.874375 8.381875 5.93625 7.70125 6 7 C5.34 7 4.68 7 4 7 C3.67 5.68 3.34 4.36 3 3 C2.34 3 1.68 3 1 3 C0.67 2.01 0.34 1.02 0 0 Z " fill="#DBDBDB" transform="translate(138,33)"/>
<path d="M0 0 C0.99 0.33 1.98 0.66 3 1 C3.49230769 8.26153846 3.49230769 8.26153846 1 12 C0.34 12.66 -0.32 13.32 -1 14 C-1 12.02 -1 10.04 -1 8 C-1.66 7.67 -2.32 7.34 -3 7 C-2.01 4.69 -1.02 2.38 0 0 Z " fill="#A77400" transform="translate(122,83)"/>
<path d="M0 0 C1.9140625 1.37890625 1.9140625 1.37890625 4.6640625 3.87890625 C3.6740625 4.37390625 3.6740625 4.37390625 2.6640625 4.87890625 C1.6946875 4.40453125 0.7253125 3.93015625 -0.2734375 3.44140625 C-6.55926556 0.55546003 -13.75102615 1.40502718 -20.3359375 2.87890625 C-19.3359375 0.87890625 -19.3359375 0.87890625 -17.140625 -0.21875 C-11.71696773 -1.96368709 -5.23667828 -2.5132553 0 0 Z " fill="#B4B4B4" transform="translate(48.3359375,21.12109375)"/>
<path d="M0 0 C0.99 0 1.98 0 3 0 C2 3 2 3 0.2578125 4.1328125 C-0.44601563 4.46023437 -1.14984375 4.78765625 -1.875 5.125 C-2.57367188 5.45757812 -3.27234375 5.79015625 -3.9921875 6.1328125 C-7.30600678 7.56407297 -9.97966611 8.15798736 -13.5625 8.1875 C-14.74005859 8.20876953 -14.74005859 8.20876953 -15.94140625 8.23046875 C-18 8 -18 8 -20 6 C-17.06782822 5.28917048 -14.59791936 5.00731056 -11.5625 5.0625 C-7.88919231 4.99805601 -5.35024946 4.48034279 -2 3 C-1.34 2.01 -0.68 1.02 0 0 Z " fill="#876126" transform="translate(119,97)"/>
<path d="M0 0 C1.98 0.66 3.96 1.32 6 2 C5.67 3.32 5.34 4.64 5 6 C9.62 6 14.24 6 19 6 C16.35175491 8.64824509 14.94296725 8.35941487 11.25 8.4375 C7.09300138 8.39253247 4.46430037 8.22751931 1.25 5.5 C0.5075 4.675 -0.235 3.85 -1 3 C-0.67 2.01 -0.34 1.02 0 0 Z " fill="#B17B00" transform="translate(13,95)"/>
<path d="M0 0 C0.33 0.66 0.66 1.32 1 2 C0.566875 2.886875 0.13375 3.77375 -0.3125 4.6875 C-3.08275043 10.63464312 -3.29367303 17.54334049 -4 24 C-4.99 24 -5.98 24 -7 24 C-6.81604867 16.59177816 -5.47201231 5.47201231 0 0 Z " fill="#D2D2D2" transform="translate(97,42)"/>
<path d="M0 0 C2.03023744 5.49746113 -0.77442395 10.90899479 -3 16 C-4.92358783 18.72508276 -6.99080446 20.49540223 -10 22 C-8.13998898 17.1353558 -5.80212266 12.57216041 -3.4375 7.9375 C-2.15948168 5.32589735 -1.03783122 2.71432781 0 0 Z " fill="#969696" transform="translate(68,105)"/>
<path d="M0 0 C1.0131301 3.14566269 0.93424331 5.08209621 0.0625 8.25 C-0.70817184 11.3531025 -1.10288715 14.05444618 -1 17.25 C-1 20.81804284 -1.42573574 22.85147148 -3 26 C-3.33 26 -3.66 26 -4 26 C-4.62596368 16.50621746 -2.97647055 8.98256292 0 0 Z " fill="#A09F9E" transform="translate(8,50)"/>
<path d="M0 0 C3 3.625 3 3.625 3 7 C3.66 7 4.32 7 5 7 C5 15.58 5 24.16 5 33 C4.67 33 4.34 33 4 33 C3.97812622 32.0553186 3.97812622 32.0553186 3.95581055 31.09155273 C3.88081006 28.20628679 3.78432361 25.32211277 3.6875 22.4375 C3.66494141 21.44685547 3.64238281 20.45621094 3.61914062 19.43554688 C3.40187598 13.49039601 2.56468792 9.34252684 0 4 C0 2.68 0 1.36 0 0 Z " fill="#949494" transform="translate(69,52)"/>
<path d="M0 0 C0.99 0.495 0.99 0.495 2 1 C2.39716201 3.19468784 2.69248137 5.40816482 2.9375 7.625 C3.67789958 13.58342407 3.67789958 13.58342407 5.6875 19.1875 C7 22 7 22 6 25 C1.65001136 16.8800212 0.84193201 9.02861296 0 0 Z " fill="#949393" transform="translate(6,95)"/>
<path d="M0 0 C1.04274021 3.20063314 0.90361734 5.15586321 0 8.375 C-0.95646712 12.2327507 -1.00234477 15.09085538 0 19 C-1.98 19.99 -1.98 19.99 -4 21 C-4.32134892 14.25167265 -3.43087228 9.27240619 -1 3 C-0.67 2.01 -0.34 1.02 0 0 Z " fill="#DEDDDC" transform="translate(13,45)"/>
<path d="M0 0 C2.31 1.65 4.62 3.3 7 5 C6.01 5.495 6.01 5.495 5 6 C5.66 7.65 6.32 9.3 7 11 C3.34683329 9.75023244 2.21934164 9.32901247 0 6 C-0.125 2.8125 -0.125 2.8125 0 0 Z " fill="#915B00" transform="translate(93,91)"/>
<path d="M0 0 C2.32528287 2.32528287 2.29511025 2.84665898 2.3125 6 C2.32925781 6.70125 2.34601562 7.4025 2.36328125 8.125 C2.18345703 9.053125 2.18345703 9.053125 2 10 C1.01 10.66 0.02 11.32 -1 12 C-1.12375 11.360625 -1.2475 10.72125 -1.375 10.0625 C-1.58125 9.381875 -1.7875 8.70125 -2 8 C-2.66 7.67 -3.32 7.34 -4 7 C-2.68 4.69 -1.36 2.38 0 0 Z " fill="#C09400" transform="translate(38,85)"/>
<path d="M0 0 C0.66 0 1.32 0 2 0 C2 0.66 2 1.32 2 2 C2.66 2.66 3.32 3.32 4 4 C3.21625 4.20625 2.4325 4.4125 1.625 4.625 C-1.30916286 5.80676612 -1.30916286 5.80676612 -2.3125 9.125 C-2.539375 10.07375 -2.76625 11.0225 -3 12 C-4.32 10.35 -5.64 8.7 -7 7 C-4.66666667 4.66666667 -2.33333333 2.33333333 0 0 Z " fill="#6B3D16" transform="translate(14,62)"/>
<path d="M0 0 C0.96421875 0.15597656 1.9284375 0.31195313 2.921875 0.47265625 C4.18515625 0.66730469 5.4484375 0.86195313 6.75 1.0625 C8.62945312 1.35833984 8.62945312 1.35833984 10.546875 1.66015625 C13.50016589 1.95080818 15.2602414 1.98935727 18 1 C17.67 1.99 17.34 2.98 17 4 C5.47835991 4.55353075 5.47835991 4.55353075 0 1 C0 0.67 0 0.34 0 0 Z " fill="#E8E8E8" transform="translate(28,128)"/>
<path d="M0 0 C0 3 0 3 -1 6 C-2.32 6 -3.64 6 -5 6 C-5 6.66 -5 7.32 -5 8 C-7.97 7.505 -7.97 7.505 -11 7 C-7.54319097 4.23455278 -3.85658398 2.15078722 0 0 Z " fill="#DEB200" transform="translate(36,92)"/>
<path d="M0 0 C1.94399451 1.63212373 2.90302605 2.57554026 3.4765625 5.0859375 C3.52554688 5.84132813 3.57453125 6.59671875 3.625 7.375 C3.88713956 10.65441937 4.27366489 13.7833731 5 17 C4.01 17 3.02 17 2 17 C1.66151348 15.10507994 1.32943089 13.20901534 1 11.3125 C0.814375 10.25675781 0.62875 9.20101562 0.4375 8.11328125 C0.04931926 5.35095938 -0.08259976 2.78257957 0 0 Z " fill="#989797" transform="translate(89,95)"/>
<path d="M0 0 C0.97858674 3.05808355 0.97730101 4.8331506 0 7.875 C-1.03215746 11.54948057 -0.93743961 14.25024158 0 18 C-0.99 18.66 -1.98 19.32 -3 20 C-3.55353075 6.3667426 -3.55353075 6.3667426 0 0 Z " fill="#B5B4B3" transform="translate(92,50)"/>
<path d="M0 0 C0.99 0.33 1.98 0.66 3 1 C3.144375 1.639375 3.28875 2.27875 3.4375 2.9375 C3.79586791 5.17920606 3.79586791 5.17920606 5.9375 6.1875 C6.618125 6.455625 7.29875 6.72375 8 7 C8.66 7.33 9.32 7.66 10 8 C10 8.66 10 9.32 10 10 C6.50832834 9.70902736 5.23799325 9.24460417 2.75 6.6875 C1.20760276 4.31881853 0.40837087 2.75650336 0 0 Z " fill="#DEDEDE" transform="translate(18,118)"/>
<path d="M0 0 C4.875 0.875 4.875 0.875 6 2 C6.97222585 7.30305008 7.75850984 12.13204146 5 17 C4.67 17 4.34 17 4 17 C4.33 12.71 4.66 8.42 5 4 C3.68 3.67 2.36 3.34 1 3 C0.67 2.01 0.34 1.02 0 0 Z " fill="#6B3F01" transform="translate(37,77)"/>
<path d="M0 0 C1.65 1.32 3.3 2.64 5 4 C4.67 4.33 4.34 4.66 4 5 C3.92820036 6.51928038 3.91607993 8.04167482 3.9375 9.5625 C3.94652344 10.38878906 3.95554687 11.21507813 3.96484375 12.06640625 C3.97644531 12.70449219 3.98804687 13.34257813 4 14 C0.73262697 10.73262697 0.04327104 7.16831802 -0.125 2.625 C-0.08375 1.75875 -0.0425 0.8925 0 0 Z " fill="#BFBFBE" transform="translate(91,98)"/>
<path d="M0 0 C1.32 0 2.64 0 4 0 C4.2475 0.598125 4.495 1.19625 4.75 1.8125 C5.85467041 4.11332248 5.85467041 4.11332248 8 5.375 C10.67715172 7.55018577 11.12772142 9.72895533 12 13 C8.18753181 10.27680843 5.68804581 7.4271172 3.11328125 3.5859375 C1.9575147 1.84252532 1.9575147 1.84252532 0 0 Z " fill="#A4A4A4" transform="translate(133,23)"/>
<path d="M0 0 C0.66 0.33 1.32 0.66 2 1 C-0.70474154 5.68128343 -2.85859301 8.14034215 -8 10 C-8.99 9.67 -9.98 9.34 -11 9 C-10.2575 8.79375 -9.515 8.5875 -8.75 8.375 C-5.20503041 6.60251521 -4.05201604 4.32568116 -2 1 C-1.34 0.67 -0.68 0.34 0 0 Z " fill="#BABABA" transform="translate(140,123)"/>
<path d="M0 0 C0.66 0.33 1.32 0.66 2 1 C2 2.98 2 4.96 2 7 C1.7525 6.360625 1.505 5.72125 1.25 5.0625 C0.17589058 2.86828783 0.17589058 2.86828783 -1.9375 2.0625 C-4.05762054 1.78692844 -4.05762054 1.78692844 -5.625 3.1875 C-7.03563777 5.04697706 -8.04667135 6.87334378 -9 9 C-9.36 3.6 -9.36 3.6 -7.875 1.125 C-5.18282457 -0.49030526 -3.07846795 -0.26199727 0 0 Z " fill="#E0D6CD" transform="translate(102,66)"/>
<path d="M0 0 C2 2 2 2 2.0625 4.9375 C2.041875 5.948125 2.02125 6.95875 2 8 C2.33 8.99 2.66 9.98 3 11 C5.50447516 12.21869929 5.50447516 12.21869929 8 13 C7.01 13.33 6.02 13.66 5 14 C2.375 12.625 2.375 12.625 0 10 C-0.77306803 7.0069731 -1.08776383 4.09054066 -1 1 C-0.67 0.67 -0.34 0.34 0 0 Z " fill="#6B3E09" transform="translate(92,89)"/>
<path d="M0 0 C2.82956479 2.70654023 3.96750313 3.9886975 4.09765625 8.0390625 C4.08605469 9.22242187 4.07445312 10.40578125 4.0625 11.625 C4.05347656 12.81351563 4.04445313 14.00203125 4.03515625 15.2265625 C4.02355469 16.14179687 4.01195312 17.05703125 4 18 C3.67 18 3.34 18 3 18 C2.92652344 17.14728516 2.92652344 17.14728516 2.8515625 16.27734375 C2.36768753 11.2800833 1.46790697 6.79516276 0 2 C0 1.34 0 0.68 0 0 Z " fill="#562D0D" transform="translate(40,70)"/>
<path d="M0 0 C0.66 0.99 1.32 1.98 2 3 C1.34 3.66 0.68 4.32 0 5 C-0.16677282 8.58343976 -0.16677282 8.58343976 0 12 C-0.99 12.495 -0.99 12.495 -2 13 C-2.12375 12.195625 -2.2475 11.39125 -2.375 10.5625 C-2.684375 9.2940625 -2.684375 9.2940625 -3 8 C-3.66 7.67 -4.32 7.34 -5 7 C-3.35 4.69 -1.7 2.38 0 0 Z " fill="#6C421D" transform="translate(94,64)"/>
<path d="M0 0 C3.13107836 3.38583802 3.33550778 5.71109462 3.1875 10.25 C3.16042969 11.32765625 3.13335937 12.4053125 3.10546875 13.515625 C3.07066406 14.33546875 3.03585938 15.1553125 3 16 C0.30717525 11.96076287 -0.13300939 9.04463848 -0.0625 4.25 C-0.05347656 3.45078125 -0.04445313 2.6515625 -0.03515625 1.828125 C-0.02355469 1.22484375 -0.01195313 0.6215625 0 0 Z " fill="#898887" transform="translate(87,90)"/>
<path d="M0 0 C0.33 0 0.66 0 1 0 C1 3.96 1 7.92 1 12 C0.01 12.33 -0.98 12.66 -2 13 C-2.19294408 8.17639811 -1.75747614 4.50353262 0 0 Z " fill="#EAEAE9" transform="translate(95,52)"/>
<path d="M0 0 C0.33 0 0.66 0 1 0 C1.56561146 5.65611463 -0.28608722 9.22642128 -3 14 C-3.33 14 -3.66 14 -4 14 C-4.56561146 8.34388537 -2.71391278 4.77357872 0 0 Z " fill="#B3B3B3" transform="translate(97,36)"/>
<path d="M0 0 C3.63559661 3.43361902 6.36113346 6.7973607 9 11 C4.70073737 9.40768051 2.64994267 6.60686641 0 3 C0 2.01 0 1.02 0 0 Z " fill="#B4B4B4" transform="translate(17,120)"/>
<path d="M0 0 C0.33 0.99 0.66 1.98 1 3 C-0.98 3.99 -0.98 3.99 -3 5 C-2.01 3.35 -1.02 1.7 0 0 Z M-5 7 C-5.66 8.32 -6.32 9.64 -7 11 C-8.32 10.67 -9.64 10.34 -11 10 C-7.25 7 -7.25 7 -5 7 Z " fill="#F1F1F1" transform="translate(139,118)"/>
<path d="M0 0 C2.375 -0.125 2.375 -0.125 5 0 C7 2 7 2 7.125 5.125 C7.08375 6.07375 7.0425 7.0225 7 8 C6.01 8.495 6.01 8.495 5 9 C4.67 7.02 4.34 5.04 4 3 C2.35 2.67 0.7 2.34 -1 2 C-0.67 1.34 -0.34 0.68 0 0 Z " fill="#E3DAD3" transform="translate(14,66)"/>
<path d="M0 0 C0.66 0.33 1.32 0.66 2 1 C0.75803878 2.15454162 -0.49392845 3.29832562 -1.75 4.4375 C-2.79414063 5.39462891 -2.79414063 5.39462891 -3.859375 6.37109375 C-5.98792725 7.99081325 -7.39023405 8.58267256 -10 9 C-9.67 8.34 -9.34 7.68 -9 7 C-8.34 7 -7.68 7 -7 7 C-6.773125 6.401875 -6.54625 5.80375 -6.3125 5.1875 C-4.6388703 2.39811716 -2.91182274 1.3831158 0 0 Z " fill="#868686" transform="translate(141,127)"/>
<path d="M0 0 C0.66 0.33 1.32 0.66 2 1 C-3.0022779 8.66742597 -3.0022779 8.66742597 -7 10 C-5.6062718 5.56541027 -3.39417765 3.12621626 0 0 Z " fill="#B6B6B6" transform="translate(59,121)"/>
<path d="M0 0 C1.305239 3.91571701 0.32239848 5.03892997 -1.4375 8.6875 C-1.91058594 9.68136719 -2.38367187 10.67523438 -2.87109375 11.69921875 C-3.42990234 12.83810547 -3.42990234 12.83810547 -4 14 C-5.06528748 11.26980214 -5.07998186 10.20701188 -4.00390625 7.421875 C-3.52824219 6.54015625 -3.05257812 5.6584375 -2.5625 4.75 C-2.08941406 3.85796875 -1.61632812 2.9659375 -1.12890625 2.046875 C-0.75636719 1.37140625 -0.38382812 0.6959375 0 0 Z " fill="#BDBDBD" transform="translate(66,107)"/>
<path d="M0 0 C0.66 0 1.32 0 2 0 C3.07421875 5.859375 3.07421875 5.859375 3 8 C2.01 9.32 1.02 10.64 0 12 C0 8.04 0 4.08 0 0 Z " fill="#9D9C9A" transform="translate(87,63)"/>
<path d="M0 0 C1.32 0.66 2.64 1.32 4 2 C4 4.64 4 7.28 4 10 C1.38952199 8.694761 1.31933577 7.64173426 0.375 4.9375 C0.11460938 4.20402344 -0.14578125 3.47054687 -0.4140625 2.71484375 C-0.60742188 2.14894531 -0.80078125 1.58304687 -1 1 C-0.67 0.67 -0.34 0.34 0 0 Z " fill="#E7E6E5" transform="translate(95,102)"/>
<path d="M0 0 C0.66 0 1.32 0 2 0 C2.67154933 1.28913487 3.33708859 2.58140204 4 3.875 C4.37125 4.59429687 4.7425 5.31359375 5.125 6.0546875 C6 8 6 8 6 10 C5.34 10 4.68 10 4 10 C3.32845067 8.71086513 2.66291141 7.41859796 2 6.125 C1.62875 5.40570313 1.2575 4.68640625 0.875 3.9453125 C0 2 0 2 0 0 Z " fill="#AAAAAA" transform="translate(94,112)"/>
<path d="M0 0 C0.99 0.33 1.98 0.66 3 1 C3.33 4.3 3.66 7.6 4 11 C1 9 1 9 0.48828125 6.8359375 C0.43027344 6.02382812 0.37226563 5.21171875 0.3125 4.375 C0.24675781 3.55773437 0.18101563 2.74046875 0.11328125 1.8984375 C0.07589844 1.27195312 0.03851563 0.64546875 0 0 Z " fill="#E7E6E5" transform="translate(13,103)"/>
<path d="M0 0 C3.90381822 3.90381822 3.56244183 5.66179036 4 11 C3.34 11 2.68 11 2 11 C1.34 7.37 0.68 3.74 0 0 Z " fill="#C1C0C0" transform="translate(8,98)"/>
<path d="M0 0 C0.99 0 1.98 0 3 0 C2 3 2 3 0.15234375 4.16796875 C-0.57855469 4.50441406 -1.30945313 4.84085937 -2.0625 5.1875 C-2.79597656 5.53167969 -3.52945313 5.87585938 -4.28515625 6.23046875 C-5.13400391 6.61138672 -5.13400391 6.61138672 -6 7 C-6.66 6.34 -7.32 5.68 -8 5 C-7.05125 4.731875 -6.1025 4.46375 -5.125 4.1875 C-1.74732727 3.25013412 -1.74732727 3.25013412 0 0 Z " fill="#8C6718" transform="translate(119,97)"/>
<path d="M0 0 C0.33 0.66 0.66 1.32 1 2 C3.02463255 2.65213292 3.02463255 2.65213292 5 3 C4.67 4.32 4.34 5.64 4 7 C3.01 6.34 2.02 5.68 1 5 C0.67 5.99 0.34 6.98 0 8 C0 5.36 0 2.72 0 0 Z " fill="#7D4D00" transform="translate(37,78)"/>
<path d="M0 0 C0.33 0 0.66 0 1 0 C0.14285714 8.57142857 0.14285714 8.57142857 -2 12 C-3.15957207 8.52128379 -2.77456651 7.65780355 -1.5625 4.3125 C-1.13130859 3.10013672 -1.13130859 3.10013672 -0.69140625 1.86328125 C-0.46324219 1.24839844 -0.23507813 0.63351563 0 0 Z " fill="#C5C5C5" transform="translate(150,101)"/>
<path d="M0 0 C3.32604248 1.66302124 3.80042476 4.62976481 5 8 C4.6875 10.4375 4.6875 10.4375 4 12 C1.24331998 8.04476345 0.4682121 4.77576339 0 0 Z " fill="#CCCCCC" transform="translate(61,37)"/>
<path d="M0 0 C0.33 0.66 0.66 1.32 1 2 C3.01669827 3.13350534 3.01669827 3.13350534 5 4 C4.67 5.32 4.34 6.64 4 8 C3.67 7.34 3.34 6.68 3 6 C2.01 6 1.02 6 0 6 C0 4.02 0 2.04 0 0 Z " fill="#895500" transform="translate(121,78)"/>
<path d="M0 0 C2.86724686 0.57344937 3.8614515 0.8614515 6 3 C6 3.99 6 4.98 6 6 C3.37812506 4.95125002 2.20628639 4.35068687 0.75 1.875 C0.5025 1.25625 0.255 0.6375 0 0 Z " fill="#D1D1D1" transform="translate(134,27)"/>
<path d="M0 0 C2 2 2 2 2.1953125 3.9453125 C2.13020833 5.96354167 2.06510417 7.98177083 2 10 C1.67 10 1.34 10 1 10 C0.67 8.35 0.34 6.7 0 5 C-0.66 5 -1.32 5 -2 5 C-1.34 3.35 -0.68 1.7 0 0 Z " fill="#A77800" transform="translate(38,85)"/>
<path d="M0 0 C1.15224028 0.92961422 2.29659176 1.8690125 3.4375 2.8125 C4.07558594 3.33457031 4.71367187 3.85664063 5.37109375 4.39453125 C7 6 7 6 8 9 C6 9 6 9 4.4921875 7.5390625 C3.95851562 6.90742188 3.42484375 6.27578125 2.875 5.625 C2.06675781 4.68527344 2.06675781 4.68527344 1.2421875 3.7265625 C0 2 0 2 0 0 Z " fill="#858585" transform="translate(137,23)"/>
<path d="M0 0 C0 3 0 3 -2.5 5.6875 C-3.325 6.450625 -4.15 7.21375 -5 8 C-5.66 7.67 -6.32 7.34 -7 7 C-4.78071806 4.09197539 -3.07030857 2.04687238 0 0 Z " fill="#848484" transform="translate(60,125)"/>
<path d="M0 0 C-0.33 0.99 -0.66 1.98 -1 3 C-3.31 3.33 -5.62 3.66 -8 4 C-3.375 0 -3.375 0 0 0 Z " fill="#D4D4D4" transform="translate(135,128)"/>
<path d="M0 0 C0.125 3.375 0.125 3.375 0 7 C-0.66 7.66 -1.32 8.32 -2 9 C-2 7.02 -2 5.04 -2 3 C-2.66 2.67 -3.32 2.34 -4 2 C-1 0 -1 0 0 0 Z " fill="#C69600" transform="translate(123,88)"/>
</svg>
